<mxfile host="app.diagrams.net" modified="2024-02-12T17:42:05.834Z" agent="Mozilla/5.0 (Windows NT 10.0; Win64; x64) AppleWebKit/537.36 (KHTML, like Gecko) Chrome/120.0.0.0 Safari/537.36" etag="dtWJk81uF9Z-8tEBMUGS" version="23.1.2" type="github">
  <diagram name="Page-1" id="2YBvvXClWsGukQMizWep">
    <mxGraphModel dx="1120" dy="510" grid="1" gridSize="10" guides="1" tooltips="1" connect="1" arrows="1" fold="1" page="1" pageScale="1" pageWidth="850" pageHeight="1100" math="0" shadow="0">
      <root>
        <mxCell id="0" />
        <mxCell id="1" parent="0" />
        <mxCell id="aM9ryv3xv72pqoxQDRHE-8" value="return" style="html=1;verticalAlign=bottom;endArrow=open;dashed=1;endSize=8;edgeStyle=elbowEdgeStyle;elbow=vertical;curved=0;rounded=0;" parent="1" edge="1">
          <mxGeometry relative="1" as="geometry">
            <mxPoint x="490" y="70" as="targetPoint" />
            <Array as="points">
              <mxPoint x="650" y="40" />
            </Array>
            <mxPoint x="650" y="40" as="sourcePoint" />
          </mxGeometry>
        </mxCell>
        <mxCell id="OI2zsCM2BVVziDJ-GgJj-1" value="Clock in/out &lt;br&gt;System" style="rounded=0;whiteSpace=wrap;html=1;fontSize=16;" vertex="1" parent="1">
          <mxGeometry x="90" y="100" width="190" height="100" as="geometry" />
        </mxCell>
        <mxCell id="OI2zsCM2BVVziDJ-GgJj-3" value="" style="endArrow=none;html=1;rounded=0;fontSize=12;curved=1;startSize=8;endSize=8;" edge="1" parent="1">
          <mxGeometry width="50" height="50" relative="1" as="geometry">
            <mxPoint x="130" y="200" as="sourcePoint" />
            <mxPoint x="130" y="100" as="targetPoint" />
          </mxGeometry>
        </mxCell>
        <mxCell id="OI2zsCM2BVVziDJ-GgJj-4" value="" style="endArrow=none;html=1;rounded=0;fontSize=12;curved=1;startSize=8;endSize=8;" edge="1" parent="1">
          <mxGeometry width="50" height="50" relative="1" as="geometry">
            <mxPoint x="110" y="200" as="sourcePoint" />
            <mxPoint x="110" y="100" as="targetPoint" />
          </mxGeometry>
        </mxCell>
        <mxCell id="OI2zsCM2BVVziDJ-GgJj-5" value="The machine, server,&amp;nbsp; (all hardware elements)" style="text;html=1;strokeColor=none;fillColor=none;align=center;verticalAlign=middle;whiteSpace=wrap;rounded=0;fontSize=16;" vertex="1" parent="1">
          <mxGeometry x="120" y="210" width="170" height="30" as="geometry" />
        </mxCell>
        <mxCell id="OI2zsCM2BVVziDJ-GgJj-6" value="" style="endArrow=classic;html=1;rounded=0;fontSize=12;curved=1;startSize=8;endSize=8;" edge="1" parent="1">
          <mxGeometry width="50" height="50" relative="1" as="geometry">
            <mxPoint x="189.5" y="240" as="sourcePoint" />
            <mxPoint x="189.5" y="310" as="targetPoint" />
          </mxGeometry>
        </mxCell>
        <mxCell id="OI2zsCM2BVVziDJ-GgJj-7" value="Report (the output)" style="rounded=0;whiteSpace=wrap;html=1;fontSize=16;" vertex="1" parent="1">
          <mxGeometry x="90" y="320" width="200" height="90" as="geometry" />
        </mxCell>
        <mxCell id="OI2zsCM2BVVziDJ-GgJj-8" value="Username&amp;nbsp;&lt;br&gt;list" style="rounded=0;whiteSpace=wrap;html=1;fontSize=16;" vertex="1" parent="1">
          <mxGeometry x="390" y="80" width="120" height="60" as="geometry" />
        </mxCell>
        <mxCell id="OI2zsCM2BVVziDJ-GgJj-9" value="" style="endArrow=none;html=1;rounded=0;fontSize=12;curved=1;startSize=8;endSize=8;exitX=0.75;exitY=1;exitDx=0;exitDy=0;" edge="1" parent="1">
          <mxGeometry width="50" height="50" relative="1" as="geometry">
            <mxPoint x="410" y="140" as="sourcePoint" />
            <mxPoint x="410" y="80" as="targetPoint" />
          </mxGeometry>
        </mxCell>
        <mxCell id="OI2zsCM2BVVziDJ-GgJj-10" value="wage list" style="rounded=0;whiteSpace=wrap;html=1;fontSize=16;" vertex="1" parent="1">
          <mxGeometry x="390" y="200" width="120" height="60" as="geometry" />
        </mxCell>
        <mxCell id="OI2zsCM2BVVziDJ-GgJj-11" value="" style="endArrow=none;html=1;rounded=0;fontSize=12;curved=1;startSize=8;endSize=8;exitX=0.75;exitY=1;exitDx=0;exitDy=0;" edge="1" parent="1">
          <mxGeometry width="50" height="50" relative="1" as="geometry">
            <mxPoint x="410" y="260" as="sourcePoint" />
            <mxPoint x="410" y="200" as="targetPoint" />
          </mxGeometry>
        </mxCell>
        <mxCell id="OI2zsCM2BVVziDJ-GgJj-12" value="white-listed&amp;nbsp;&lt;br&gt;values" style="rounded=0;whiteSpace=wrap;html=1;fontSize=16;" vertex="1" parent="1">
          <mxGeometry x="390" y="310" width="120" height="60" as="geometry" />
        </mxCell>
        <mxCell id="OI2zsCM2BVVziDJ-GgJj-13" value="" style="endArrow=none;html=1;rounded=0;fontSize=12;curved=1;startSize=8;endSize=8;exitX=0.75;exitY=1;exitDx=0;exitDy=0;" edge="1" parent="1">
          <mxGeometry width="50" height="50" relative="1" as="geometry">
            <mxPoint x="410" y="370" as="sourcePoint" />
            <mxPoint x="410" y="310" as="targetPoint" />
          </mxGeometry>
        </mxCell>
        <mxCell id="OI2zsCM2BVVziDJ-GgJj-14" value="" style="endArrow=none;dashed=1;html=1;rounded=0;fontSize=12;curved=1;startSize=8;endSize=8;" edge="1" parent="1">
          <mxGeometry width="50" height="50" relative="1" as="geometry">
            <mxPoint x="460" y="420" as="sourcePoint" />
            <mxPoint x="460" y="380" as="targetPoint" />
          </mxGeometry>
        </mxCell>
        <mxCell id="OI2zsCM2BVVziDJ-GgJj-20" value="" style="shape=image;html=1;verticalAlign=top;verticalLabelPosition=bottom;labelBackgroundColor=#ffffff;imageAspect=0;aspect=fixed;image=https://cdn0.iconfinder.com/data/icons/phosphor-light-vol-2/256/circle-dashed-light-128.png;fontSize=16;" vertex="1" parent="1">
          <mxGeometry x="410" y="410" width="90" height="90" as="geometry" />
        </mxCell>
        <mxCell id="OI2zsCM2BVVziDJ-GgJj-22" value="input characters&lt;br&gt;must be in domain &lt;br&gt;(&amp;gt;/&amp;lt; etc.)" style="text;html=1;strokeColor=none;fillColor=none;align=center;verticalAlign=middle;whiteSpace=wrap;rounded=0;fontSize=16;" vertex="1" parent="1">
          <mxGeometry x="335" y="450" width="240" height="30" as="geometry" />
        </mxCell>
        <mxCell id="OI2zsCM2BVVziDJ-GgJj-23" value="Make sure input specified" style="text;html=1;strokeColor=none;fillColor=none;align=center;verticalAlign=middle;whiteSpace=wrap;rounded=0;fontSize=16;" vertex="1" parent="1">
          <mxGeometry x="425" y="370" width="170" height="30" as="geometry" />
        </mxCell>
        <mxCell id="OI2zsCM2BVVziDJ-GgJj-24" value="username must be in database" style="ellipse;whiteSpace=wrap;html=1;fontSize=16;" vertex="1" parent="1">
          <mxGeometry x="650" y="20" width="120" height="80" as="geometry" />
        </mxCell>
        <mxCell id="OI2zsCM2BVVziDJ-GgJj-25" value="valid wage must be in database" style="ellipse;whiteSpace=wrap;html=1;fontSize=16;" vertex="1" parent="1">
          <mxGeometry x="600" y="140" width="120" height="80" as="geometry" />
        </mxCell>
        <mxCell id="OI2zsCM2BVVziDJ-GgJj-26" value="labor hours must be in database" style="ellipse;whiteSpace=wrap;html=1;fontSize=16;" vertex="1" parent="1">
          <mxGeometry x="610" y="240" width="120" height="80" as="geometry" />
        </mxCell>
        <mxCell id="OI2zsCM2BVVziDJ-GgJj-27" value="return" style="html=1;verticalAlign=bottom;endArrow=open;dashed=1;endSize=8;edgeStyle=elbowEdgeStyle;elbow=vertical;curved=0;rounded=0;" edge="1" parent="1">
          <mxGeometry relative="1" as="geometry">
            <mxPoint x="495" y="195" as="targetPoint" />
            <Array as="points">
              <mxPoint x="655" y="165" />
            </Array>
            <mxPoint x="595" y="165" as="sourcePoint" />
          </mxGeometry>
        </mxCell>
        <mxCell id="OI2zsCM2BVVziDJ-GgJj-28" value="return" style="html=1;verticalAlign=bottom;endArrow=open;dashed=1;endSize=8;edgeStyle=elbowEdgeStyle;elbow=vertical;curved=0;rounded=0;entryX=0.5;entryY=1;entryDx=0;entryDy=0;" edge="1" parent="1">
          <mxGeometry x="-0.4286" y="-10" relative="1" as="geometry">
            <mxPoint x="480" y="270" as="targetPoint" />
            <Array as="points">
              <mxPoint x="610" y="290" />
              <mxPoint x="640" y="290" />
            </Array>
            <mxPoint x="600" y="290" as="sourcePoint" />
            <mxPoint as="offset" />
          </mxGeometry>
        </mxCell>
        <mxCell id="OI2zsCM2BVVziDJ-GgJj-29" value="return" style="html=1;verticalAlign=bottom;endArrow=open;dashed=1;endSize=8;edgeStyle=elbowEdgeStyle;elbow=vertical;curved=0;rounded=0;" edge="1" parent="1">
          <mxGeometry relative="1" as="geometry">
            <mxPoint x="520" y="100" as="targetPoint" />
            <Array as="points">
              <mxPoint x="680" y="70" />
            </Array>
            <mxPoint x="680" y="70" as="sourcePoint" />
          </mxGeometry>
        </mxCell>
        <mxCell id="OI2zsCM2BVVziDJ-GgJj-30" value="" style="shape=image;html=1;verticalAlign=top;verticalLabelPosition=bottom;labelBackgroundColor=#ffffff;imageAspect=0;aspect=fixed;image=https://cdn0.iconfinder.com/data/icons/phosphor-light-vol-2/256/circle-dashed-light-128.png;fontSize=16;" vertex="1" parent="1">
          <mxGeometry x="145" y="440" width="80" height="80" as="geometry" />
        </mxCell>
        <mxCell id="OI2zsCM2BVVziDJ-GgJj-31" value="Follows Analysis Rules" style="text;html=1;strokeColor=none;fillColor=none;align=center;verticalAlign=middle;whiteSpace=wrap;rounded=0;fontSize=16;" vertex="1" parent="1">
          <mxGeometry x="140" y="460" width="100" height="30" as="geometry" />
        </mxCell>
        <mxCell id="OI2zsCM2BVVziDJ-GgJj-32" value="" style="endArrow=none;dashed=1;html=1;dashPattern=1 3;strokeWidth=2;rounded=0;fontSize=12;curved=1;startSize=8;endSize=8;exitX=0.5;exitY=0;exitDx=0;exitDy=0;entryX=0.5;entryY=1;entryDx=0;entryDy=0;" edge="1" parent="1" source="OI2zsCM2BVVziDJ-GgJj-30" target="OI2zsCM2BVVziDJ-GgJj-7">
          <mxGeometry width="50" height="50" relative="1" as="geometry">
            <mxPoint x="400" y="280" as="sourcePoint" />
            <mxPoint x="450" y="230" as="targetPoint" />
          </mxGeometry>
        </mxCell>
      </root>
    </mxGraphModel>
  </diagram>
</mxfile>
